# xmcd
#
# Track frame offsets:
#	150
#	16600
#	34075
#	46542
#	61307
#	76020
#	91660
#	106590
#	119762
#	136220
#
# Disc length: 2053 seconds
#
# Revision: 0
# Processed by: cddbd v1.5.2PL0 Copyright (c) Steve Scherf et al.
# Submitted via: dBpowerAMP V4.0
#
DISCID=6508030a
DTITLE=Various Artist - 80s Country Volume Three
DYEAR=1900
DGENRE=
TTITLE0=Dan Seals - Bop
TTITLE1=Alabama - Mountain Music
TTITLE2=Sawyer Brown - Step That Step
TTITLE3=Rosanne Cash - Seven Year Ache
TTITLE4=Ronnie Milsap - (There's) No Gettin' Over Me
TTITLE5=Restless Heart - A Tender Lie
TTITLE6=George Jones - I Always Get Lucky With You
TTITLE7=Terri Gibbs - Somebody's Knockin'
TTITLE8=Don Williams - That's The Thing About Love
TTITLE9=Dolly Parton - Starting Over Again
EXTD=
EXTT0=
EXTT1=
EXTT2=
EXTT3=
EXTT4=
EXTT5=
EXTT6=
EXTT7=
EXTT8=
EXTT9=
PLAYORDER=
